<svg xmlns="http://www.w3.org/2000/svg" xmlns:xlink="http://www.w3.org/1999/xlink" width="120" height="60" viewBox="0 0 120 60">
    <defs>
        <path id="prefix__a" d="M0.003 0.132L4.354 0.132 4.354 4.192 0.003 4.192z"/>
        <path id="prefix__c" d="M0 0.073L11.412 0.073 11.412 15.318 0 15.318z"/>
    </defs>
    <g fill="none" fill-rule="evenodd">
        <g transform="translate(10 11.25) translate(94.388 4.767)">
            <mask id="prefix__b" fill="#fff">
                <use xlink:href="#prefix__a"/>
            </mask>
            <path fill="#FEB520" d="M4.354 4.127c-.803-.056-1.602.042-2.404.054-.285.004-.57.005-.856.011-.15.003-.137-.102-.132-.196C.985 3.518.914 3.056.77 2.6.623 2.128.426 1.684.13 1.29c-.186-.25-.186-.262.127-.355.887-.265 1.776-.52 2.662-.789.135-.04.182.015.239.115.537.952.89 1.969 1.1 3.04.026.137.01.287.096.411v.416z" mask="url(#prefix__b)"/>
        </g>
        <path fill="#015480" d="M74.469 19.448c-.82 0-1.435.424-1.891 1.038-1.042 1.402-1.492 2.997-1.36 4.74.037.498.354.751.873.467.272-.15.517-.344.716-.582.44-.525.836-1.08 1.169-1.683.632-1.145 1.135-2.336 1.345-3.636.02-.13.01-.223-.167-.253-.227-.039-.449-.106-.685-.091m-.056 8.021c-.369.56-.78 1.03-1.245 1.45-.863.782-1.84 1.331-3.022 1.456-.636.067-1.265.08-1.892-.085-.978-.258-1.627-.893-2.013-1.795-.306-.713-.393-1.476-.456-2.25-.043-.538-.01-1.068.029-1.594.162-2.19.774-4.239 2.127-6.004 1.31-1.709 3.045-2.754 5.161-3.166.57-.11 1.148-.152 1.726-.21.83-.082 1.652.016 2.475.032.816.016 1.637.087 2.45.217.455.073.915.12 1.372.19.174.027.203.082.17.254-.271 1.38-.527 2.76-.793 4.14-.2 1.037-.411 2.072-.609 3.109-.17.895-.324 1.794-.497 2.69-.025.13-.01.145.118.164.685.104 1.37.213 2.063.233.164.004.195.101.168.223-.232 1.03-.386 2.076-.584 3.114-.03.156-.097.203-.268.214-.683.046-1.363.13-2.045.185-.316.025-.636.038-.951.043-1.062.015-2.123.104-3.185.055-.291-.014-.581-.054-.874-.044-.202.006-.143-.128-.117-.228.203-.766.383-1.54.685-2.275.008-.021.004-.048.007-.118M37.474 19.697c.183-.914.36-1.8.54-2.685.082-.41.177-.818.245-1.231.023-.143.084-.161.202-.16.467.003.935-.007 1.402.005.174.005.253-.058.276-.22.119-.854.266-1.704.531-2.524.28-.87.68-1.677 1.297-2.37.958-1.077 2.183-1.605 3.576-1.836.829-.138 1.66-.169 2.493-.137.5.02.999.09 1.492.19.125.024.152.07.12.194-.353 1.317-.702 2.635-1.045 3.954-.048.187-.149.196-.3.148-.483-.154-.984-.162-1.48-.125-.534.04-.865.372-1.055.858-.214.545-.287 1.123-.403 1.69-.035.17.065.176.192.176.64-.004 1.282-.002 1.922-.002.131 0 .242-.033.192.196-.172.79-.31 1.588-.463 2.382-.085.444-.192.883-.258 1.33-.023.16-.082.17-.208.169-.676-.004-1.351 0-2.027-.003-.126 0-.194-.002-.227.175-.323 1.7-.643 3.4-.946 5.104-.2 1.124-.421 2.245-.636 3.367-.17.886-.317 1.778-.522 2.656-.314 1.345-.817 2.61-1.7 3.7-.727.9-1.628 1.552-2.717 1.93-.604.21-1.231.319-1.875.374-.529.046-1.049.005-1.571-.019-.494-.023-.985-.096-1.472-.189-.124-.023-.146-.076-.112-.198.345-1.224.682-2.45 1.023-3.674.045-.162.048-.384.156-.467.12-.093.32.043.487.072.384.067.775.096 1.157.036.679-.107.999-.611 1.216-1.197.3-.812.407-1.67.575-2.514.165-.826.322-1.654.477-2.482.259-1.384.512-2.768.77-4.152.14-.744.28-1.488.433-2.23.046-.223.022-.31-.24-.298-.491.023-.985.007-1.517.007M30.87 19.163c-.661.018-1.114.245-1.475.64-.381.416-.606.93-.825 1.444-.04.094-.11.243-.072.286.071.083.201.028.308-.011.045-.018.102-.006.154-.006.555.005 1.087-.118 1.6-.314.41-.157.749-.405.919-.845.273-.708-.075-1.233-.61-1.194m3.438 8.255c0 .59-.011 1.178.006 1.767.005.195-.07.277-.237.325-.983.284-1.973.538-2.989.682-.69.098-1.38.145-2.075.19-1.177.077-2.33 0-3.445-.396-1.286-.457-2.097-1.365-2.479-2.677-.246-.845-.295-1.708-.267-2.575.046-1.437.296-2.842.86-4.17.451-1.065 1.071-2.025 1.896-2.857 1.01-1.019 2.188-1.732 3.558-2.133.584-.171 1.178-.263 1.788-.296 1.087-.059 2.149.042 3.182.386 1.24.411 2.098 1.203 2.422 2.5.195.779.141 1.561-.046 2.332-.192.79-.574 1.49-1.15 2.064-.552.55-1.201.97-1.913 1.285-.871.387-1.794.615-2.727.774-.811.138-1.634.232-2.461.197-.211-.009-.263.06-.254.26.033.701.305 1.036 1.013 1.124 1.374.17 2.72-.014 4.043-.386.328-.092.649-.212.973-.318.301-.1.302-.1.302.208v1.714" transform="translate(10 11.25)"/>
        <g transform="translate(10 11.25) translate(0 15.158)">
            <mask id="prefix__d" fill="#fff">
                <use xlink:href="#prefix__c"/>
            </mask>
            <path fill="#015480" d="M11.412.35c-.388 1.476-.777 2.944-1.16 4.412-.043.168-.114.186-.27.136-.723-.234-1.464-.326-2.204-.11-.7.205-1.206.673-1.566 1.303-.499.87-.71 1.817-.674 2.808.032.895.451 1.475 1.418 1.625.73.114 1.434-.01 2.128-.201.241-.066.254.022.23.2-.095.708-.2 1.416-.29 2.125-.071.568-.126 1.14-.188 1.709-.016.145-.04.29-.045.435-.007.153-.139.148-.223.171-.537.147-1.085.245-1.638.293-.524.045-1.051.082-1.577.05-1.198-.072-2.362-.25-3.397-.938-1-.663-1.515-1.62-1.786-2.75-.208-.867-.188-1.75-.132-2.622.084-1.317.374-2.6.928-3.812.417-.911.944-1.743 1.628-2.482C3.766 1.436 5.187.636 6.873.268c.893-.194 1.79-.217 2.69-.18.618.026 1.238.1 1.85.262" mask="url(#prefix__d)"/>
        </g>
        <path fill="#015480" d="M19.17 18.104c.272-.38.529-.772.82-1.137.684-.857 1.503-1.536 2.623-1.713.445-.07.91-.046 1.362.034.143.026.073.124.055.203-.183.796-.366 1.592-.547 2.39-.179.788-.355 1.577-.534 2.366-.027.121-.069.196-.23.147-.906-.273-1.647.013-2.303.66-.704.693-1.125 1.55-1.477 2.447-.572 1.461-.898 2.987-1.153 4.531-.102.613-.23 1.221-.347 1.832-.023.118-.076.18-.224.18-1.62-.007-3.239-.008-4.858 0-.196.002-.198-.102-.17-.222.207-.898.352-1.807.527-2.711.203-1.054.409-2.108.616-3.161.267-1.362.536-2.723.805-4.084.032-.16.044-.247-.186-.28-.686-.098-1.37-.201-2.063-.226-.204-.008-.144-.126-.126-.223.128-.722.262-1.443.394-2.165.059-.317.128-.633.174-.953.023-.162.094-.202.25-.213.709-.051 1.416-.124 2.125-.179.334-.026.67-.024 1.007-.04.879-.04 1.76-.052 2.64-.05.43 0 .86.059 1.292.041.148-.005.165.05.135.19-.167.751-.359 1.494-.63 2.214-.01.03-.01.065-.013.097l.036.025M57.81 30.422c-.83-.05-1.66-.08-2.481-.225-.211-.038-.23-.118-.195-.282l.503-2.426c.1-.485.22-.968.29-1.457.03-.207.108-.186.242-.142.68.218 1.38.325 2.09.362.243.012.477-.053.703-.125.346-.111.499-.431.402-.782-.082-.3-.26-.537-.47-.757-.458-.48-.962-.917-1.363-1.453-.484-.65-.735-1.372-.83-2.174-.098-.81.002-1.585.28-2.34.371-1.006 1.047-1.758 1.965-2.3.891-.527 1.86-.8 2.88-.944.544-.077 1.092-.118 1.636-.13.753-.015 1.507.06 2.257.14.173.02.253.068.193.296-.301 1.144-.577 2.295-.852 3.445-.047.198-.104.263-.324.208-.544-.136-1.1-.194-1.662-.162-.144.008-.29.03-.43.068-.565.151-.707.661-.32 1.158.275.354.583.677.894 1 .514.533.973 1.108 1.29 1.788.558 1.2.587 2.415.099 3.636-.612 1.529-1.801 2.448-3.297 3.012-.91.343-1.854.525-2.831.543-.222.004-.445.044-.67.043M56.654 15.81c-.222 1.132-.442 2.235-.655 3.34-.215 1.12-.421 2.244-.635 3.365-.235 1.23-.476 2.458-.71 3.688-.243 1.281-.485 2.563-.716 3.846-.033.187-.107.238-.287.237-1.584-.006-3.168-.006-4.752 0-.215.002-.245-.036-.2-.26.283-1.402.548-2.808.819-4.212.32-1.657.633-3.316.954-4.973.05-.259.092-.519.151-.776.024-.108.042-.22-.15-.238-.44-.043-.879-.106-1.315-.184-.261-.047-.527-.026-.79-.083-.138-.03-.146-.093-.128-.191.185-.971.367-1.942.56-2.912.085-.424.095-.424.525-.448.78-.045 1.558-.112 2.337-.16 1.457-.092 2.913-.088 4.37-.081.195 0 .39.053.622.042M57.956 11.468c.03.913-.304 1.676-.91 2.292-1.079 1.095-2.835 1.365-4.128.544-1.511-.96-1.678-2.962-.678-4.291.598-.795 1.402-1.22 2.394-1.34.76-.092 1.454.06 2.074.473.686.456 1.322 1.312 1.248 2.322" transform="translate(10 11.25)"/>
        <path fill="#FEB520" d="M80.577 7.762c.615 0 1.232.035 1.843-.008 1.124-.078 2.247-.012 3.37-.042.177-.005.272-.006.228.238-.145.792-.059 1.573.199 2.334.043.126.053.182-.117.229-1.942.528-3.88 1.069-5.82 1.608-.486.136-.972.273-1.455.419-.178.053-.273.043-.32-.173-.221-1.034-.3-2.074-.22-3.13.031-.412.091-.818.15-1.226.027-.179.094-.26.298-.255.615.016 1.23.006 1.844.006M88.245 20.32c-1.358-.05-2.663-.332-3.909-.885-.183-.082-.235-.137-.113-.352.49-.868.947-1.756 1.418-2.635.687-1.282 1.376-2.562 2.061-3.844.057-.106.111-.143.216-.068.648.464 1.365.754 2.16.837.2.021.164.162.137.273-.206.848-.35 1.709-.53 2.562-.268 1.27-.546 2.539-.8 3.812-.046.228-.112.34-.355.303-.092-.015-.19-.003-.285-.003M97.454 15.163c-.028.06-.048.117-.079.167-.558.883-1.188 1.703-1.986 2.39-.333.287-.677.556-1.03.814-.24.175-.249.167-.342-.108-.295-.87-.588-1.739-.885-2.607-.279-.813-.559-1.625-.845-2.435-.061-.173-.028-.238.153-.317.855-.37 1.566-.925 2.089-1.706.168-.252.177-.258.34-.019.837 1.228 1.668 2.46 2.501 3.69.029.041.054.085.084.13M88.87 4.266c.003.119-.084.127-.14.152-.72.33-1.308.824-1.799 1.44-.08.101-.158.097-.263.016-.66-.508-1.324-1.009-1.985-1.514-.58-.443-1.158-.89-1.737-1.333-.3-.229-.6-.459-.903-.682-.131-.095-.169-.171-.023-.291.662-.543 1.382-.993 2.152-1.363.536-.257 1.097-.446 1.67-.604.145-.04.212-.012.293.11.675 1.018 1.358 2.03 2.038 3.043l.623.917.075.109M90.705 3.731c.073-.93.01-1.864.046-2.796.01-.265.044-.53.041-.798-.001-.181.125-.14.216-.113.553.157 1.106.315 1.633.551.527.237 1.035.503 1.523.814.146.093.197.183.128.358-.369.925-.728 1.853-1.088 2.781-.055.142-.109.17-.26.087-.631-.347-1.297-.591-2.031-.589-.211 0-.239-.127-.208-.295" transform="translate(10 11.25)"/>
    </g>
</svg>
