<svg xmlns="http://www.w3.org/2000/svg" width="258" height="65" viewBox="0 0 258 65">
    <g fill="#FFF">
        <path d="M136.051 40.767c2.923 0 4.975 1.383 5.898 4.15.41 1.383.615 2.664.615 4.918 0 2.203-.154 3.535-.615 4.918-.923 2.716-2.975 4.15-5.898 4.15-2.307 0-3.743-.82-4.564-1.998h-.051v7.736c0 .205-.154.359-.36.359h-4.307v-.051c-.205 0-.359-.154-.359-.359V41.484c0-.205.154-.359.36-.359h4.307c.205 0 .359.154.359.359v1.28h.051c.77-1.178 2.257-1.997 4.564-1.997zm16.923 0c5.693 0 7.693 1.946 7.693 6.301v11.118c0 .205-.154.359-.36.359h-3.948v-.052c-.205 0-.359-.153-.359-.358v-1.127c-.923 1.127-2.41 1.895-4.77 1.895-3.076 0-5.794-1.64-5.794-5.328 0-3.843 2.923-5.584 7.23-5.584h3.078c.153 0 .205-.052.205-.205v-.666c0-1.589-.77-2.357-3.539-2.357-1.743 0-3.025.512-3.897 1.127-.154.154-.36.102-.462-.051l-1.64-2.818c-.103-.205-.052-.41.102-.512 1.487-1.025 3.59-1.742 6.461-1.742zm47.744-.052c3.641 0 6.513 1.742 7.538 4.868.41 1.28.565 2.459.565 4.2 0 1.743-.206 2.921-.565 4.202-1.025 3.176-3.897 4.867-7.538 4.867-3.692.051-6.564-1.69-7.539-4.867-.41-1.281-.564-2.46-.564-4.201 0-1.742.154-2.92.564-4.201 1.026-3.177 3.898-4.868 7.539-4.868zm49.23 0c3.847 0 6.514 1.845 7.488 4.868.359 1.127.564 2.408.564 5.328 0 .205-.154.358-.41.358h-10.513c-.154 0-.205.052-.205.205.051.359.102.666.205.974.461 1.486 1.795 2.305 3.59 2.305 1.743 0 2.974-.614 4-1.537.154-.153.359-.205.512 0l2.36 2.203c.205.154.205.359.05.513-1.64 1.742-4.204 2.92-7.384 2.92-3.949.051-6.667-1.793-7.692-4.918-.36-1.076-.616-2.357-.616-4.15 0-1.845.206-3.074.565-4.15 1.025-3.125 3.743-4.919 7.487-4.919zM80.257 34.106c.206 0 .36.154.36.359v18.341c0 1.179.46 1.64 1.487 1.64h.769c.205 0 .359.154.359.359v3.535c0 .205-.154.358-.36.358h-1.897c-3.846 0-5.384-1.69-5.384-5.533v-18.7c0-.205.154-.359.359-.359h4.307zm35.59 6.61c4.103 0 6.205 2.612 6.205 6.455v10.964c0 .205-.154.358-.359.358h-4.359c-.205 0-.359-.153-.359-.358v-9.99c0-1.896-.923-3.177-2.718-3.177-1.743 0-2.666 1.28-2.666 3.176v9.99c0 .206-.154.36-.36.36h-4.307c-.205 0-.359-.154-.359-.36v-9.99c0-1.895-.923-3.176-2.667-3.176-1.743 0-2.718 1.28-2.718 3.176v9.99c0 .206-.153.36-.358.36h-4.308c-.205 0-.36-.154-.36-.36v-16.65c0-.205.155-.359.36-.359h4.308c.205 0 .358.154.358.359v1.23h.052c.769-1.076 2.256-1.999 4.461-1.999 2.103 0 3.641.769 4.667 2.203h.051c1.282-1.383 3.026-2.203 5.436-2.203zm-24.615.41c.205 0 .359.153.359.358v16.65c0 .206-.154.36-.36.36h-4.307c-.205 0-.359-.154-.359-.36v-16.65c0-.205.154-.359.36-.359h4.307zm141.025-.41c4.103 0 6.206 2.612 6.206 6.455v10.964c0 .205-.154.358-.36.358h-4.358c-.206 0-.36-.153-.36-.358v-9.99c0-1.896-.922-3.177-2.717-3.177-1.744 0-2.667 1.28-2.667 3.176v9.99c0 .206-.154.36-.359.36h-4.308c-.205 0-.359-.154-.359-.36v-9.99c0-1.895-.923-3.176-2.666-3.176-1.744 0-2.718 1.28-2.718 3.176v9.99c0 .206-.154.36-.36.36h-4.307c-.205 0-.359-.154-.359-.36v-16.65c0-.205.154-.359.36-.359h4.307c.205 0 .359.154.359.359v1.23h.051c.77-1.076 2.256-1.999 4.462-1.999 2.102 0 3.64.769 4.666 2.203h.052c1.282-1.383 3.025-2.203 5.435-2.203zm-49.128 0c3.846 0 5.898 2.664 5.898 6.455v10.964c0 .205-.154.358-.36.358h-4.256c-.205 0-.359-.153-.359-.358v-9.99c0-1.896-.923-3.177-2.666-3.177-1.744 0-2.718 1.28-2.718 3.176v9.99c0 .206-.154.36-.36.36h-4.358c-.205 0-.36-.154-.36-.36v-16.65c0-.205.155-.359.36-.359h4.307c.206 0 .36.154.36.359v1.23h.05c.77-1.076 2.257-1.999 4.462-1.999zM155.744 51.32h-2.462c-2.103 0-3.077.614-3.077 1.998 0 1.23.872 1.844 2.513 1.844 2.154-.051 3.23-.82 3.23-2.459v-1.178c0-.154-.05-.205-.204-.205zm-21.334-6.302c-1.333 0-2.256.615-2.666 1.844-.206.666-.308 1.435-.308 2.972s.102 2.305.308 2.971c.41 1.23 1.333 1.845 2.666 1.845 1.334 0 2.308-.666 2.667-1.845.205-.666.308-1.434.308-2.971 0-1.537-.103-2.306-.308-2.972-.41-1.28-1.333-1.844-2.667-1.844zm66.308 0c-1.282 0-2.308.666-2.667 1.844-.256.769-.307 1.486-.307 2.972s.05 2.203.307 2.971c.41 1.23 1.385 1.845 2.667 1.845 1.282 0 2.308-.666 2.667-1.845.256-.768.307-1.485.307-2.971s-.051-2.203-.307-2.972c-.41-1.23-1.385-1.844-2.667-1.844zm49.282-.41c-1.436 0-2.513.717-2.923 1.896-.103.358-.154.768-.154 1.28 0 .154.051.206.205.206h5.744c.154 0 .205-.052.205-.205 0-.564-.051-.923-.154-1.281-.41-1.179-1.487-1.896-2.923-1.896zM91.23 34.106c.206 0 .36.154.36.359V38c0 .205-.154.359-.36.359h-4.307c-.205 0-.359-.154-.359-.359v-3.535c0-.205.154-.359.36-.359h4.307zm47.078-23.004c2 0 3.743.667 4.871 1.435.154.102.154.307.052.41l-.564.717c-.103.154-.257.205-.41.103-.975-.564-2.513-1.128-4.052-1.128-2.256 0-3.436.974-3.436 2.613 0 1.435.872 2.203 3.385 2.46l1.487.153c2.872.256 4.256 1.64 4.256 3.945 0 2.818-1.948 4.56-5.64 4.56-2.616-.051-4.565-1.178-5.693-2.152-.102-.102-.102-.307 0-.41l.667-.768c.102-.103.307-.103.41 0 1.128.922 2.77 1.742 4.77 1.742 2.563 0 3.794-1.127 3.794-2.818 0-1.486-.667-2.254-3.333-2.562l-1.487-.153c-2.718-.257-4.257-1.589-4.257-3.894 0-2.664 1.949-4.253 5.18-4.253zm-57.487 0c2 0 3.743.667 4.871 1.435.154.102.154.307.052.41l-.565.717c-.102.154-.256.205-.41.103-.974-.564-2.513-1.128-4.051-1.128-2.256 0-3.436.974-3.436 2.613 0 1.435.872 2.203 3.385 2.46l1.487.153c2.872.256 4.256 1.64 4.256 3.945 0 2.818-1.948 4.56-5.64 4.56-2.616-.051-4.565-1.178-5.693-2.152-.103-.102-.103-.307 0-.41l.667-.768c.102-.103.307-.103.41 0 1.128.922 2.77 1.742 4.77 1.742 2.563 0 3.794-1.127 3.794-2.818 0-1.486-.667-2.254-3.333-2.562l-1.488-.153c-2.718-.257-4.256-1.589-4.256-3.894 0-2.664 1.949-4.253 5.18-4.253zm15.076-.05c2.667 0 4.667 1.331 5.488 3.79.307.923.41 1.896.41 3.894 0 .205-.103.308-.36.308h-9.538c-.102 0-.205.102-.205.205 0 1.23.103 1.895.308 2.561.667 1.947 2.154 2.87 4.154 2.87 1.897 0 3.23-.82 4.102-1.896.103-.154.257-.205.41-.052l.719.666c.153.103.153.257.05.41-1.076 1.435-2.922 2.46-5.332 2.46-2.872.05-4.82-1.333-5.641-3.843-.257-.87-.41-1.896-.41-3.791 0-1.845.153-2.92.41-3.791.82-2.46 2.82-3.792 5.435-3.792zM153.436 11c3.795 0 5.333 1.28 5.333 4.867v9.786c0 .205-.102.307-.307.307h-.975c-.205 0-.308-.102-.308-.307v-1.537h-.05c-.565 1.23-2.155 2.152-4.565 2.152-2.974 0-4.923-1.486-4.923-4.355 0-2.92 2-4.355 5.59-4.355h3.743c.103 0 .205-.051.205-.205v-1.486c0-2.408-.82-3.381-3.794-3.381-1.795.051-2.872.46-3.744 1.178-.154.103-.359.103-.462-.051l-.512-.769c-.103-.153-.052-.307.102-.41 1.026-.87 2.616-1.434 4.667-1.434zm-30.564 0c3.795 0 5.333 1.28 5.333 4.867v9.786c0 .205-.102.307-.308.307h-.974c-.205 0-.308-.102-.308-.307v-1.537h-.05c-.565 1.23-2.155 2.152-4.565 2.152-2.974 0-4.923-1.486-4.923-4.355 0-2.92 2-4.355 5.59-4.355h3.743c.103 0 .205-.051.205-.205v-1.486c0-2.408-.82-3.381-3.794-3.381-1.847.051-2.872.46-3.744 1.178-.154.103-.36.103-.462-.051l-.512-.769c-.103-.153-.052-.307.102-.41 1.026-.87 2.616-1.434 4.667-1.434zm-10.77.051c1.18 0 2.257.41 2.975 1.025.154.102.205.256.051.41l-.615.87c-.103.154-.257.154-.462.052-.666-.41-1.436-.717-2.359-.717-2.564 0-3.59 2.254-3.59 4.97v8.094c0 .205-.102.308-.307.308h-1.026v-.052c-.205 0-.307-.102-.307-.307V11.666c0-.205.102-.307.307-.307h1.026c.205 0 .308.102.308.307v1.896h.05c.565-1.435 1.898-2.51 3.95-2.51zm14.257 7.941h-3.487c-2.923 0-4.154.974-4.154 2.87 0 1.844 1.282 2.817 3.641 2.817 2.513.103 4.205-1.23 4.205-3.227v-2.255c0-.102-.051-.205-.205-.205zm30.615 0h-3.487c-2.923 0-4.154.974-4.154 2.87 0 1.844 1.282 2.817 3.641 2.817 2.513.103 4.205-1.23 4.205-3.227v-2.255c0-.102-.05-.205-.205-.205zM95.95 12.537c-1.898 0-3.334.973-3.898 2.767-.205.563-.256 1.23-.256 2.1 0 .103.051.205.205.205h7.949c.102 0 .205-.051.205-.205 0-.87-.103-1.537-.257-2.1-.564-1.794-2-2.767-3.948-2.767zM43.512 0H14.487C6.501 0 0 6.553 0 14.487v29.026C0 51.499 6.552 58 14.487 58h29.025C51.498 58 58 51.447 58 43.513V14.487C58.05 6.553 51.498 0 43.512 0zm-5.784 14.487c1.587 0 2.918 1.28 2.918 2.918 0 1.587-1.28 2.918-2.918 2.918-1.587 0-2.918-1.28-2.918-2.918 0-1.587 1.33-2.918 2.918-2.918zm-17.405 0c1.587 0 2.918 1.28 2.918 2.918 0 1.587-1.28 2.918-2.918 2.918-1.587 0-2.918-1.28-2.918-2.918 0-1.587 1.28-2.918 2.918-2.918zm8.702 33.377c-9.93 0-18.07-7.679-18.787-17.405h2.918c.717 8.14 7.576 14.487 15.92 14.487 8.345 0 15.153-6.399 15.92-14.487h2.919c-.82 9.726-9.01 17.405-18.89 17.405z"/>
    </g>
</svg>
